<svg width="60" height="61" viewBox="0 0 60 61" fill="none" xmlns="http://www.w3.org/2000/svg">
<circle cx="30" cy="30.3333" r="30" fill="#8B481D"/>
<path d="M27.1077 8.02906C25.3164 9.1277 24.8685 11.6546 26.0628 13.8885L26.6226 14.9505L24.9059 15.7562C23.9729 16.1956 21.9949 17.7337 20.4648 19.1986C18.151 21.4325 17.6658 22.0917 17.106 23.9228C16.173 27.0722 16.8821 29.8188 19.6438 33.6274C20.7634 35.1655 20.8007 35.2388 20.3155 36.9234C19.1586 40.9151 19.4945 41.9405 22.2188 42.3433C23.0025 42.4898 23.637 42.7095 23.637 42.8194C23.637 43.4053 19.9796 43.9547 16.3223 43.9547C11.7693 43.9547 10.8363 44.2843 9.15691 46.5548L8 48.0929L9.45547 50.2169C10.2765 51.3888 11.3215 52.5973 11.732 52.8903C12.4411 53.3664 12.6277 53.3664 13.4114 52.8537C13.9338 52.5241 16.4716 52.0114 19.2706 51.6452C25.279 50.8395 26.8465 50.4367 28.6378 49.2648L30.056 48.3126L31.2502 49.0817C33.3774 50.3634 35.6166 50.9494 40.916 51.6452C44.4614 52.0846 46.2901 52.4875 46.7752 52.9269C47.2977 53.403 47.6336 53.4396 48.2307 53.1466C48.9398 52.7438 52 48.7155 52 48.1295C52 47.5802 49.9847 45.3097 48.8651 44.6505C47.9321 44.1012 46.9992 43.9547 43.9016 43.9547C40.1323 43.9547 36.3257 43.3687 36.3257 42.7828C36.3257 42.6363 36.7362 42.4898 37.2587 42.4898C38.5649 42.4898 40.3189 41.5377 40.5802 40.732C40.6921 40.4024 40.4682 38.9742 40.0577 37.5825L39.3486 35.0923L40.8041 33.0049C44.4241 27.768 44.2002 23.5932 40.0204 19.4549C38.4529 17.9168 35.3554 15.7562 34.0119 15.2801C33.4521 15.097 33.4894 14.9505 34.1612 13.5955C35.1315 11.6912 34.8329 9.82351 33.3401 8.35865C32.4444 7.47974 31.9966 7.33325 30.2799 7.33325C28.9737 7.33325 27.8914 7.5896 27.1077 8.02906ZM31.2502 10.4827C31.9593 11.1419 31.9966 11.5081 31.4741 12.4969C30.7277 13.8519 28.4885 13.1561 28.4885 11.5447C28.4885 10.0066 30.1306 9.38405 31.2502 10.4827ZM31.1756 21.6888C31.0636 23.0438 31.0636 23.0805 32.3698 23.0805C33.6387 23.0805 33.7133 23.1537 33.7133 24.3256C33.7133 25.4975 33.6014 25.6073 32.5191 25.7172C31.3622 25.8271 31.2875 25.9369 31.2875 27.2187C31.2875 28.5004 31.2129 28.5737 30.0933 28.5737C28.8991 28.5737 28.8617 28.5004 28.8617 27.1088C28.8617 25.7538 28.7871 25.644 27.7795 25.644C26.8838 25.644 26.6972 25.4609 26.5479 24.5453C26.3613 23.2269 26.436 23.0805 27.8168 23.0805C28.7871 23.0805 28.8617 22.9706 28.8617 21.579C28.8617 20.1507 28.8991 20.1141 30.0933 20.224C31.2502 20.3339 31.2875 20.4071 31.1756 21.6888ZM36.5869 32.8218C36.6989 33.1514 36.5869 33.5542 36.2884 33.7373C35.6913 34.1401 23.8236 34.0303 23.4504 33.6274C23.3011 33.4809 23.2638 33.1147 23.3757 32.7851C23.7489 31.9428 36.2511 31.9428 36.5869 32.8218ZM36.1018 36.4839C36.8855 36.7769 36.8482 37.5825 36.0645 37.9121C35.6913 38.0586 33.2655 38.2417 30.6904 38.3516C24.8312 38.6079 21.8083 37.8389 23.9355 36.667C24.6073 36.2642 35.1315 36.1177 36.1018 36.4839Z" fill="#FAE5D1"/>
</svg>
