<svg
  width="37"
  height="36"
  viewBox="0 0 37 36"
  fill="currentColor"
  xmlns="http://www.w3.org/2000/svg"
>
<path
    d="M19.7479 3C21.4354 3.0045 22.2919 3.0135 23.0314 3.0345L23.3224 3.045C23.6584 3.057 23.9899 3.072 24.3904 3.09C25.9864 3.165 27.0754 3.417 28.0309 3.7875C29.0209 4.1685 29.8549 4.6845 30.6889 5.517C31.452 6.2666 32.0422 7.17371 32.4184 8.175C32.7889 9.1305 33.0409 10.2195 33.1159 11.817C33.1339 12.216 33.1489 12.5475 33.1609 12.885L33.1699 13.176C33.1924 13.914 33.2014 14.7705 33.2044 16.458L33.2059 17.577V19.542C33.2096 20.6361 33.1981 21.7302 33.1714 22.824L33.1624 23.115C33.1504 23.4525 33.1354 23.784 33.1174 24.183C33.0424 25.7805 32.7874 26.868 32.4184 27.825C32.0422 28.8263 31.452 29.7334 30.6889 30.483C29.9393 31.246 29.0322 31.8363 28.0309 32.2125C27.0754 32.583 25.9864 32.835 24.3904 32.91L23.3224 32.955L23.0314 32.964C22.2919 32.985 21.4354 32.9955 19.7479 32.9985L18.6289 33H16.6654C15.5708 33.0039 14.4762 32.9924 13.3819 32.9655L13.0909 32.9565C12.7348 32.943 12.3788 32.9275 12.0229 32.91C10.4269 32.835 9.33793 32.583 8.38093 32.2125C7.38018 31.8361 6.4736 31.2459 5.72443 30.483C4.96085 29.7336 4.37009 28.8264 3.99343 27.825C3.62293 26.8695 3.37093 25.7805 3.29593 24.183L3.25093 23.115L3.24343 22.824C3.21578 21.7302 3.20328 20.6361 3.20593 19.542V16.458C3.20178 15.3639 3.21278 14.2698 3.23893 13.176L3.24943 12.885C3.26143 12.5475 3.27643 12.216 3.29443 11.817C3.36943 10.2195 3.62143 9.132 3.99193 8.175C4.36947 7.1733 4.96127 6.26615 5.72593 5.517C6.47466 4.75432 7.38071 4.16411 8.38093 3.7875C9.33793 3.417 10.4254 3.165 12.0229 3.09C12.4219 3.072 12.7549 3.057 13.0909 3.045L13.3819 3.036C14.4757 3.00935 15.5698 2.99785 16.6639 3.0015L19.7479 3ZM18.2059 10.5C16.2168 10.5 14.3092 11.2902 12.9026 12.6967C11.4961 14.1032 10.7059 16.0109 10.7059 18C10.7059 19.9891 11.4961 21.8968 12.9026 23.3033C14.3092 24.7098 16.2168 25.5 18.2059 25.5C20.1951 25.5 22.1027 24.7098 23.5092 23.3033C24.9158 21.8968 25.7059 19.9891 25.7059 18C25.7059 16.0109 24.9158 14.1032 23.5092 12.6967C22.1027 11.2902 20.1951 10.5 18.2059 10.5ZM18.2059 13.5C18.7969 13.4999 19.3821 13.6162 19.9281 13.8423C20.4741 14.0683 20.9702 14.3997 21.3881 14.8175C21.8061 15.2353 22.1376 15.7313 22.3639 16.2772C22.5901 16.8232 22.7066 17.4083 22.7067 17.9993C22.7068 18.5902 22.5905 19.1754 22.3644 19.7214C22.1384 20.2674 21.807 20.7635 21.3892 21.1814C20.9714 21.5994 20.4754 21.9309 19.9294 22.1572C19.3835 22.3834 18.7984 22.4999 18.2074 22.5C17.014 22.5 15.8694 22.0259 15.0255 21.182C14.1815 20.3381 13.7074 19.1935 13.7074 18C13.7074 16.8065 14.1815 15.6619 15.0255 14.818C15.8694 13.9741 17.014 13.5 18.2074 13.5M26.0824 8.25C25.5851 8.25 25.1082 8.44754 24.7566 8.79917C24.405 9.15081 24.2074 9.62772 24.2074 10.125C24.2074 10.6223 24.405 11.0992 24.7566 11.4508C25.1082 11.8025 25.5851 12 26.0824 12C26.5797 12 27.0566 11.8025 27.4083 11.4508C27.7599 11.0992 27.9574 10.6223 27.9574 10.125C27.9574 9.62772 27.7599 9.15081 27.4083 8.79917C27.0566 8.44754 26.5797 8.25 26.0824 8.25Z"
    fill="#DFD1C4"
  />
</svg>
