<svg width="60" height="61" viewBox="0 0 60 61" fill="none" xmlns="http://www.w3.org/2000/svg">
<circle cx="30" cy="30.6667" r="30" fill="#8B481D"/>
<path d="M27.9569 6.47771C27.5254 7.85844 27.3096 8.03103 25.9721 8.03103C24.5913 8.03103 24.505 8.11733 24.505 9.49807C24.505 10.7925 24.7208 11.1377 26.2309 11.9575C27.1802 12.5184 27.9569 13.2519 27.9569 13.5971C27.9569 13.9423 27.0508 15.1936 25.9289 16.3154C24.1167 18.1277 23.901 18.6023 23.7284 20.7597C23.6421 22.0541 23.4695 23.1328 23.34 23.1328C23.2537 23.1328 22.6065 22.7445 21.9593 22.2267C19.1547 20.1556 14.0632 19.8536 10.6977 21.6226C8.97176 22.5288 6.9438 25.0313 6.42603 26.8867C5.43362 30.4248 6.0377 32.4959 9.70527 38.1052C12.4236 42.2042 13.1571 44.189 13.5454 48.7196C13.9769 53.4659 14.883 54.5446 19.4999 55.7527C24.8071 57.1766 37.1905 56.8745 41.8074 55.2781C44.914 54.1562 45.5181 53.2933 45.8633 49.4962C46.3379 44.6637 47.3303 41.9022 50.3075 37.4148C53.1553 33.1432 53.6299 31.633 53.3279 28.2674C52.6807 21.7521 45.1729 18.4297 38.7439 21.7521L36.2413 23.0465L35.9392 20.6734C35.6804 18.6023 35.4215 18.0845 33.7387 16.488C31.4087 14.2443 31.3224 13.1656 33.3504 11.9144C34.6017 11.1377 34.8605 10.7062 34.8605 9.49807C34.8605 8.11733 34.7742 8.03103 33.3935 8.03103C32.1422 8.03103 31.9265 7.85844 31.5813 6.60715C31.2361 5.4853 30.9341 5.18327 29.8122 5.09697C28.6041 4.96753 28.4315 5.14012 27.9569 6.47771ZM19.543 23.9958C23.7715 26.0237 26.7487 30.0365 27.3096 34.3513C27.7843 37.8031 27.9137 38.1483 29.0356 38.4072C30.8046 38.8387 31.8402 38.0189 31.8402 36.1204C31.8402 29.9502 38.0966 23.1328 43.7059 23.1328C47.8481 23.1328 50.3938 25.4197 50.3938 29.1304C50.3938 32.2802 46.8988 38.1483 43.7059 40.3489C42.4546 41.1687 41.6779 41.3413 39.1322 41.3413C37.4494 41.2981 34.6448 41.0824 32.8757 40.8235C30.632 40.4783 28.7767 40.4783 26.533 40.7803C23.2969 41.255 20.5786 41.4276 18.0328 41.2981C16.7815 41.255 16.0912 40.7803 13.9338 38.5367C9.44639 33.8335 7.89306 29.0441 9.79157 25.8943C11.4312 23.2191 16.048 22.313 19.543 23.9958ZM39.5637 48.3312C40.3835 48.5901 41.117 49.0216 41.2033 49.3236C41.5916 50.4455 39.8226 50.6612 34.7311 50.2298C31.2793 49.9277 28.0863 49.9277 24.6345 50.2298C19.7156 50.6612 18.0328 50.4455 18.0328 49.4099C18.0328 48.6333 20.3628 48.0724 24.7208 47.7703C29.8985 47.382 37.5357 47.684 39.5637 48.3312Z" fill="#FAE5D1"/>
<path d="M13.8474 25.3334C12.1215 25.8512 10.6976 27.6202 10.6976 29.303C10.6976 31.2878 12.3372 34.3082 14.7966 36.7676C16.7383 38.7093 17.2129 38.9681 19.3272 39.227C21.9592 39.5291 24.8501 39.0113 25.4542 38.1483C26.3603 36.8107 24.9364 31.5898 22.9947 29.001C20.6216 25.9806 16.9109 24.4704 13.8474 25.3334Z" fill="#FAE5D1"/>
<path d="M41.8936 25.2901C37.9671 26.1962 34.7742 30.1658 33.9543 35.1278C33.3934 38.6228 34.0838 39.1837 38.528 39.1837C41.721 39.1837 41.8504 39.1406 43.8352 37.5009C46.5104 35.2572 48.6678 31.676 48.6678 29.4754C48.6678 28.2241 48.3658 27.4906 47.4165 26.5414C46.7262 25.851 45.7769 25.2901 45.3023 25.2901C44.8276 25.2901 44.1804 25.2038 43.8352 25.1175C43.5332 25.0312 42.6271 25.1175 41.8936 25.2901Z" fill="#FAE5D1"/>
</svg>
