<svg
  width="444"
  height="999"
  viewBox="0 0 444 999"
  fill="none"
  xmlns="http://www.w3.org/2000/svg"
>
<g clip-path="url(#clip0_10748_2828)">
<mask
      id="mask0_10748_2828"
      style="mask-type:luminance"
      maskUnits="userSpaceOnUse"
      x="-411"
      y="-138"
      width="1319"
      height="1319"
    >
<path
        d="M907.039 784.082L511.082 -137.453L-410.453 258.504L-14.4964 1180.04L907.039 784.082Z"
        fill="white"
      />
</mask>
<g mask="url(#mask0_10748_2828)">
<path
        d="M339.387 629.725L102.544 629.858L99.4806 663.671L342.473 663.545L339.387 629.725Z"
        fill="black"
      />
<path
        d="M440.934 950.901C440.935 943.962 439.543 937.254 436.813 930.901C428.798 912.245 410.494 900.181 390.18 900.186L380.781 900.195C386.593 890.209 390.171 878.753 390.176 866.385C390.174 857.13 388.337 848.185 384.712 839.75C378.719 825.801 368.337 814.786 355.67 807.661L345.575 697.357L96.4395 697.491L86.4546 807.958C81.2075 810.948 76.1847 814.376 71.8171 818.773C59.0513 831.546 52.0163 848.535 52.046 866.593C52.0486 875.848 53.8853 884.793 57.5098 893.227C58.5845 895.728 59.8876 898.076 61.2302 900.388L52.0669 900.387C38.5092 900.397 25.7673 905.688 16.1919 915.268C6.62388 924.863 1.35055 937.599 1.36057 951.157C1.37561 958.088 2.75228 964.806 5.47481 971.141C13.4978 989.811 31.8164 1001.87 52.1079 1001.85L390.251 1001.68C418.222 1001.64 440.952 978.865 440.934 950.901Z"
        fill="black"
      />
<path
        d="M336.286 595.91L323.923 460.671L330.769 460.674C363.405 460.654 389.936 434.092 389.902 401.462C389.892 393.388 388.286 385.54 385.109 378.147C377.414 360.236 361.553 347.693 342.991 343.762L365.701 241.371C367.635 232.683 366.802 223.803 363.318 215.695C356.643 200.162 341.438 190.17 324.586 190.179L288.345 190.202L288.336 161.573L298.933 161.565C309.846 161.568 320.427 157.243 327.945 149.688C335.109 142.506 339.032 133.092 339.029 123.193L339.014 87.9979C338.98 67.2746 320.474 49.6843 298.881 49.6697L288.27 49.6838L288.256 41.1699C288.19 20.4597 269.723 2.83467 248.122 2.84149L193.098 2.87484C182.647 2.8756 172.731 6.69441 165.216 13.6588C157.326 20.9498 152.996 30.7418 152.994 41.2312L153.009 49.7448L142.397 49.7591C120.282 49.7663 102.298 66.9698 102.309 88.1085L102.339 123.298C102.345 128.319 103.348 133.225 105.344 137.869C111.544 152.3 126.098 161.633 142.45 161.617L153.062 161.603L153.077 190.247L116.852 190.263C104.023 190.255 92.0487 196.008 84.0397 206.018C75.999 216.042 73.0013 228.978 75.8055 241.501L98.5881 343.776C87.4927 346.133 77.2944 351.564 69.0867 359.783C57.9039 370.973 51.7639 385.848 51.7739 401.632C51.7839 409.706 53.3894 417.555 56.5666 424.949C65.9171 446.712 87.2777 460.793 110.97 460.771L117.832 460.767L105.616 596.022L336.286 595.91ZM186.874 127.79L142.446 127.816C139.264 127.821 137.092 126.104 136.418 124.535L136.126 88.0973C136.128 85.9619 138.706 83.5658 142.409 83.5764L186.837 83.55L186.804 41.2042C186.806 40.0077 187.542 39.0656 188.181 38.4968C189.405 37.3635 191.208 36.718 193.117 36.7073L248.157 36.6673C251.08 36.6623 253.155 38.1078 254.196 40.5311C254.289 40.7485 254.361 40.9572 254.438 41.1813L254.465 83.5115L298.893 83.4861C302.074 83.4813 304.241 85.3106 305.198 88.0091L305.219 123.221C305.226 124.137 304.821 124.992 304.018 125.779C302.788 127.025 300.921 127.736 298.93 127.726L254.495 127.736L254.522 190.197L220.711 190.224L186.901 190.252L186.874 127.79ZM85.5755 401.627C85.5731 394.857 88.2139 388.497 92.998 383.699C97.7661 378.908 104.122 376.269 110.871 376.259L330.711 376.125C340.874 376.139 350.015 382.166 354.019 391.487C355.367 394.624 356.059 397.989 356.069 401.481C356.077 415.463 344.702 426.846 330.72 426.854L320.806 426.864L220.816 426.914L110.912 426.974C97.3381 426.992 85.5945 415.421 85.5755 401.627Z"
        fill="black"
      />
</g>
</g>
<defs>
<clipPath id="clip0_10748_2828">
<rect width="444" height="999" fill="white" />
</clipPath>
</defs>
</svg>
