<svg width="60" height="60" viewBox="0 0 60 60" fill="none" xmlns="http://www.w3.org/2000/svg">
<circle cx="30" cy="30" r="30" fill="#8B481D"/>
<path d="M25.9857 11.4575L24.7847 12.9155L22.7581 11.9809C21.6321 11.4575 19.9058 11.0089 18.9675 11.0089L17.2411 10.9342L17.3162 13.551C17.3912 16.6912 16.9408 18.1491 13.2253 26.037C11.7241 29.2145 10.1103 32.9155 9.65995 34.336C8.83428 36.7659 8.79675 36.8781 9.4723 37.9248C10.4106 39.4949 11.7992 40.4669 13.8258 41.0276C15.0268 41.3641 15.7399 41.4014 16.1902 41.1398C16.6406 40.8407 16.8658 40.9528 17.166 41.551C17.3912 41.9996 17.9166 42.3734 18.367 42.4482C19.005 42.5603 19.568 41.9996 21.0692 39.794C22.0825 38.2613 23.4711 36.579 24.1467 36.0183C25.4978 34.8594 28.2375 33.4014 28.5002 33.6631C28.8755 34.037 27.0741 37.4014 24.9348 40.3921C23.6963 42.0743 22.4578 43.9435 22.12 44.579C21.6697 45.4762 20.7314 49.065 20.7314 49.8127C20.7314 49.9248 27.2242 49.9996 35.1431 49.9996H49.5172L49.7799 48.2799C50.6056 42.037 49.0293 31.9809 46.3647 26.6351C43.062 20.093 38.2581 15.8687 33.3416 15.2706C31.5777 15.0463 31.4651 14.9715 30.9772 13.4762C30.4518 11.9061 28.6503 9.99957 27.6745 9.99957C27.3743 9.99957 26.6237 10.6725 25.9857 11.4575ZM33.792 18.7846C37.6952 19.9435 42.9494 26.1491 44.8259 31.8687C45.9518 35.2706 46.6274 39.5323 46.6274 43.2332C46.6274 45.9248 46.0644 47.1958 45.0511 46.822C44.263 46.5229 44.0003 45.4762 44.0003 42.2986C44.0003 38.7846 43.0995 33.6631 41.9736 30.9342C39.947 25.9996 35.8186 21.551 31.9905 20.2052C30.1891 19.5697 29.6261 18.8594 30.6019 18.4856C31.3525 18.1491 31.7654 18.1865 33.792 18.7846ZM22.8707 21.85C22.9832 22.1117 22.3828 23.0089 21.5946 23.8313C20.5062 25.0276 19.8682 25.4014 18.8549 25.4388C16.9408 25.551 16.8658 24.2426 18.6297 22.4856C19.7556 21.3641 20.1685 21.1771 21.3319 21.2893C22.12 21.3641 22.7956 21.5884 22.8707 21.85ZM13.2253 35.3454C13.2253 36.2799 12.4372 37.2145 11.5365 37.3641C10.936 37.4388 10.8234 37.2893 10.8985 36.5416C11.0486 35.0089 13.2253 33.8874 13.2253 35.3454Z" fill="#FAE5D1"/>
</svg>
