<svg width="59" height="46" viewBox="0 0 59 46" fill="none" xmlns="http://www.w3.org/2000/svg">
<path d="M29.5263 41.0448H30.4367C30.5374 40.5466 30.6295 39.9519 30.7112 39.3164H55.5996C55.6493 39.8767 55.6901 40.4494 55.7149 41.0448H55.7559C56.9948 41.0448 58 42.0493 58 43.2889C58 44.5285 56.9948 45.533 55.7559 45.533H29.5263V43.2689V41.0448Z" fill="#DFD1C4" stroke="black" stroke-width="0.5"/>
<path d="M53.2182 19.2411C53.0445 19.4873 52.7784 19.6546 52.4803 19.7058C52.1838 19.757 51.877 19.6876 51.6301 19.5129L47.5568 16.6288C47.0542 16.2724 46.369 16.3176 45.9161 16.7377C44.8072 17.7647 43.2454 18.1461 41.7887 17.7465C40.6681 17.4397 39.739 16.6997 39.1692 15.7187C38.9559 17.363 39.7595 19.9074 44.6772 23.1092C49.2313 26.0743 52.0947 29.1556 53.639 33.3319H29.6323C29.6323 31.0432 29.6323 27.9868 29.6323 24.9304C29.6323 20.5156 29.2182 15.1953 29.2182 5.37985C35.2406 -0.905447 40.598 -0.155153 43.6019 1.132C45.0629 1.75717 45.7569 3.41473 45.2076 4.89174L48.5767 1.77107C48.765 1.59653 49.0471 1.56732 49.2691 1.6994C49.4898 1.83242 49.5965 2.09545 49.5307 2.34448L48.4189 6.56969C48.8251 6.90496 49.1976 7.28118 49.487 7.73407L54.7071 15.9092C54.9555 16.3 54.9438 16.8019 54.6765 17.1803L53.2182 19.2411Z" fill="#DFD1C4" stroke="black" stroke-width="0.5"/>
<path d="M55.4927 37.8203H29.1551C28.3282 37.8203 27.659 37.1503 27.659 36.3242C27.659 35.4981 28.3282 34.8281 29.1551 34.8281H55.4927C56.3195 34.8281 56.9888 35.4981 56.9888 36.3242C56.9887 37.1504 56.3195 37.8203 55.4927 37.8203Z" fill="#DFD1C4" stroke="black" stroke-width="0.5"/>
<path d="M29.5263 41.0448H28.5633C28.4626 40.5466 28.3705 39.9519 28.2888 39.3164H3.40043C3.35074 39.8767 3.30988 40.4494 3.28508 41.0448H3.24412C2.00525 41.0448 1 42.0493 1 43.2889C1 44.5285 2.00525 45.533 3.24412 45.533H29.5263V43.2689V41.0448Z" fill="#8B481D" stroke="black" stroke-width="0.5"/>
<path d="M5.32888 19.2411C5.50267 19.4873 5.7687 19.6546 6.06677 19.7058C6.36334 19.757 6.67014 19.6876 6.91702 19.5129L10.9903 16.6288C11.4929 16.2724 12.1781 16.3176 12.6311 16.7377C13.7399 17.7647 15.3018 18.1461 16.7584 17.7465C17.879 17.4397 18.8081 16.6997 19.3779 15.7187C19.5912 17.363 18.7877 19.9074 13.8699 23.1092C9.31585 26.0743 6.45239 29.1556 4.90812 33.3319H29.6394V25.4964L29.3289 5.37985C23.3065 -0.905447 17.9492 -0.155153 14.9452 1.132C13.4842 1.75717 12.7902 3.41473 13.3396 4.89174L9.97042 1.77107C9.78207 1.59653 9.50007 1.56732 9.27799 1.6994C9.05733 1.83242 8.95062 2.09545 9.01647 2.34448L10.1282 6.56969C9.72205 6.90496 9.34948 7.28118 9.06015 7.73407L3.84003 15.9092C3.59166 16.3 3.6033 16.8019 3.87066 17.1803L5.32888 19.2411Z" fill="#8B481D" stroke="black" stroke-width="0.5"/>
<path d="M2.82762 37.8203L29.6394 37.8354C29.6321 37.8354 29.6394 37.1899 29.6394 36.3638C29.6394 35.5377 29.6394 34.8281 29.6394 34.8281H2.82762C2.00077 34.8281 1.33154 35.4981 1.33154 36.3242C1.33164 37.1504 2.00077 37.8203 2.82762 37.8203Z" fill="#8B481D" stroke="black" stroke-width="0.5"/>
</svg>
