<svg width="60" height="60" viewBox="0 0 60 60" fill="none" xmlns="http://www.w3.org/2000/svg">
<circle cx="30" cy="30" r="30" fill="#FAE5D1"/>
<path d="M26.4529 7.8868C23.5115 9.42537 22.5165 12.3267 23.6845 15.7115C24.0738 16.7666 24.3333 17.6897 24.2901 17.7337C24.2036 17.7776 23.4249 18.2172 22.5598 18.7887C19.6616 20.5471 18.3639 25.2067 19.7913 28.6355C20.0941 29.4268 21.0025 30.6137 21.7812 31.3171C22.9059 32.2842 23.0789 32.5919 22.6031 32.8996C20.4402 34.1304 17.3257 36.9438 16.201 38.6143C14.1679 41.6914 13.4758 44.1092 13.2595 49.2524L13 54H30H47L46.7405 49.2524C46.5674 46.0434 46.2214 43.7575 45.5725 42.0431C44.4911 39.0978 41.5496 35.5811 38.8244 33.9546C37.7863 33.3392 36.9211 32.7237 36.9211 32.5919C36.9211 32.46 37.4402 31.9764 38.0458 31.4489C39.3868 30.3939 40.771 27.4926 40.8142 25.6903C40.8142 23.3604 39.8193 21.0306 38.2188 19.536C37.3104 18.7447 36.3588 17.9974 36.056 17.8655C35.5802 17.7337 35.5802 17.382 35.9695 16.1951C36.2723 15.4038 36.4885 13.9092 36.4885 12.8542C36.4885 8.28244 30.9084 5.46905 26.4529 7.8868Z" fill="#8B481D"/>
</svg>
