<svg width="60" height="61" viewBox="0 0 60 61" fill="none" xmlns="http://www.w3.org/2000/svg">
<circle cx="30" cy="30.6666" r="30" fill="#FAE5D1"/>
<path d="M27.0727 8.4055C25.7097 9.47093 25.4761 11.0888 26.2939 13.7327C27.1896 16.6133 27.1506 20.5593 26.2549 25.2551L25.5929 28.8065L24.6972 26.8335C22.828 22.6507 21.8544 19.0204 21.9323 16.5738C21.9712 15.2716 22.0102 13.7327 22.0102 13.1408C22.088 10.5758 19.2063 8.76065 16.7139 9.82608C15.0783 10.4969 14.4942 11.3256 14.2605 13.1408C14.1048 14.4429 14.2216 14.877 15.273 16.0608C17.0255 18.0733 17.2591 19.0993 17.2591 24.1897L17.2202 28.8065L15.7014 27.1098C13.287 24.387 12.4302 22.2561 12.7418 19.6123C12.9365 17.7576 12.8586 17.1263 12.1966 16.0608C10.8725 13.8905 8.80852 13.4564 6.74455 14.877C4.33009 16.5344 4.44692 19.8096 6.93926 21.7037C8.02966 22.5718 8.22438 23.0059 8.45803 25.0578C8.61381 26.3205 9.23689 29.359 9.82104 31.7266C10.7946 35.5543 11.184 36.383 12.8975 38.5533C13.949 39.9344 15.1173 41.6312 15.4678 42.3415C16.0908 43.5648 16.0908 43.7226 15.1173 46.4059C13.4427 51.1412 13.7543 51.6936 18.6221 52.9563C22.3606 53.9034 36.3022 53.9034 40.5859 52.9563C45.1812 51.9304 45.7653 50.786 43.8961 46.2875C43.3119 44.8669 43.0004 43.5253 43.1172 42.9728C43.234 42.4993 44.4413 40.7236 45.7264 39.0268C48.024 36.1067 48.1408 35.8305 49.2312 31.2926C49.8154 28.6882 50.4385 25.6497 50.5553 24.5054C50.7889 22.8086 51.0226 22.3745 52.0741 21.7037C54.7611 19.928 54.6053 15.903 51.8015 14.5613C50.088 13.7327 48.686 14.0483 47.1673 15.6268C46.0379 16.7711 45.999 16.8895 46.2716 19.2966C46.5052 21.5064 46.3884 22.0588 45.5706 23.7162C45.0254 24.7816 43.9739 26.36 43.1951 27.2281L41.8321 28.8065L41.7153 26.4389C41.4427 20.3226 41.9489 17.8365 43.6624 16.2187C46.5831 13.5748 43.3898 8.4055 39.6513 9.66824C37.3147 10.4574 36.9253 11.2861 37.0421 15.2322C37.12 18.2706 37.0032 19.2177 35.9907 22.2956C35.3286 24.2686 34.4719 26.5178 34.0825 27.3071L33.3425 28.7276L32.7194 25.1762C31.9016 20.7172 31.8627 16.2187 32.6416 14.0089C33.4983 11.5623 33.3815 9.94446 32.2521 8.72119C31.1228 7.45845 28.5136 7.30061 27.0727 8.4055ZM30.8112 10.1418C31.4733 10.8126 31.3954 12.2332 30.6944 12.8251C29.2146 14.0483 26.9559 11.7596 28.1631 10.2601C28.7473 9.54985 30.1492 9.47093 30.8112 10.1418ZM19.6736 12.5883C20.5693 13.9694 19.6736 15.2716 17.999 15.1138C16.8697 14.9954 16.675 14.8376 16.5582 13.8116C16.4413 13.0618 16.636 12.5094 17.1034 12.1542C17.8433 11.6018 19.2063 11.8386 19.6736 12.5883ZM41.9489 12.1542C42.4162 12.5094 42.6109 13.0618 42.4941 13.8116C42.4162 14.7586 42.1826 15.0349 41.2869 15.1138C39.184 15.3505 38.2883 13.417 39.9239 12.2726C40.9753 11.5229 41.0922 11.5229 41.9489 12.1542ZM10.1715 16.85C10.8336 17.5209 10.7557 18.9414 10.0547 19.5333C9.27584 20.2042 7.64023 19.7306 7.32869 18.7441C6.78349 17.0079 8.92535 15.5873 10.1715 16.85ZM51.2952 17.0079C52.0351 17.7182 52.0741 18.1128 51.5289 19.1782C50.75 20.6382 48.4134 19.8885 48.4134 18.1522C48.4134 16.4949 50.1269 15.8241 51.2952 17.0079ZM40.4301 36.1462C41.5205 36.5408 42.0268 36.9749 42.1047 37.5273L42.2215 38.3954L29.5651 38.356C17.4928 38.3165 16.8697 38.2771 16.8697 37.6062C16.8697 35.9489 21.1145 35.3175 31.0838 35.4754C36.3411 35.5937 39.3787 35.791 40.4301 36.1462ZM38.8335 44.7486C39.6513 44.9459 40.6249 45.4194 40.9753 45.7351C41.4816 46.2875 41.4816 46.4454 41.0143 46.9189C40.508 47.3924 39.4566 47.4319 34.7834 47.1951C31.668 46.9978 26.8001 46.9978 23.9184 47.1951C18.8168 47.5503 17.6486 47.353 17.6486 46.327C17.6486 45.6956 19.8683 44.8275 22.3606 44.4329C25.3203 43.9594 36.6527 44.1961 38.8335 44.7486Z" fill="#8B481D"/>
</svg>
