<svg width="63" height="42" viewBox="0 0 63 42" fill="none" xmlns="http://www.w3.org/2000/svg">
<path d="M58.3968 7.69285H47.6593V6.49874H48.941C49.589 6.49874 50.1143 5.97344 50.1143 5.32539C50.1143 4.67734 49.589 4.15204 48.941 4.15204H44.031C43.3829 4.15204 42.8576 4.67734 42.8576 5.32539C42.8576 5.97344 43.3829 6.49874 44.031 6.49874H45.3128V7.69285H17.1524V2.3467H18.4341C19.0821 2.3467 19.6074 1.8214 19.6074 1.17335C19.6074 0.5253 19.0821 0 18.4341 0H13.524C12.876 0 12.3507 0.5253 12.3507 1.17335C12.3507 1.8214 12.876 2.3467 13.524 2.3467H14.8057V7.69267H4.06774C1.82483 7.69285 0 9.5175 0 11.7606V34.6765C0 36.7347 1.53691 38.4395 3.52312 38.7067V40.8266C3.52312 41.4747 4.04842 42 4.69647 42C5.34452 42 5.86982 41.4747 5.86982 40.8266V38.7442H56.5947V40.8266C56.5947 41.4747 57.12 42 57.768 42C58.4161 42 58.9414 41.4747 58.9414 40.8266V38.7067C60.9276 38.4397 62.4645 36.7347 62.4645 34.6765V11.7606C62.4645 9.5175 60.6397 7.69285 58.3968 7.69285ZM60.1178 34.6765C60.1178 35.6255 59.3457 36.3975 58.3968 36.3975H4.06774C3.11877 36.3975 2.3467 35.6255 2.3467 34.6765V11.7606C2.3467 10.8116 3.11877 10.0396 4.06774 10.0396H58.3968C59.3457 10.0396 60.1178 10.8116 60.1178 11.7606V34.6765Z" fill="black"/>
<path d="M16.1587 11.1919C9.63905 11.1919 4.33496 16.496 4.33496 23.0157C4.33496 29.5353 9.63905 34.8394 16.1587 34.8394C22.6784 34.8394 27.9825 29.5353 27.9825 23.0157C27.9825 16.496 22.6784 11.1919 16.1587 11.1919ZM16.1587 32.4927C10.933 32.4927 6.68166 28.2412 6.68166 23.0157C6.68166 17.7901 10.933 13.5386 16.1587 13.5386C21.3845 13.5386 25.6358 17.7901 25.6358 23.0157C25.6358 28.2412 21.3843 32.4927 16.1587 32.4927Z" fill="black"/>
<path d="M46.3052 11.1919C39.7855 11.1919 34.4814 16.496 34.4814 23.0157C34.4814 29.5353 39.7855 34.8394 46.3052 34.8394C52.8249 34.8394 58.129 29.5353 58.129 23.0157C58.129 16.496 52.8249 11.1919 46.3052 11.1919ZM46.3052 32.4927C41.0796 32.4927 36.8281 28.2412 36.8281 23.0157C36.8281 17.7901 41.0796 13.5386 46.3052 13.5386C51.5308 13.5386 55.7823 17.7901 55.7823 23.0157C55.7823 28.2412 51.5308 32.4927 46.3052 32.4927Z" fill="black"/>
<path d="M16.1587 28.6641C15.5107 28.6641 14.9854 29.1894 14.9854 29.8374V30.5071C14.9854 31.1552 15.5107 31.6805 16.1587 31.6805C16.8068 31.6805 17.3321 31.1552 17.3321 30.5071V29.8374C17.3321 29.1895 16.8068 28.6641 16.1587 28.6641Z" fill="black"/>
<path d="M16.1587 17.3675C16.8068 17.3675 17.3321 16.8422 17.3321 16.1941V15.5244C17.3321 14.8764 16.8068 14.3511 16.1587 14.3511C15.5107 14.3511 14.9854 14.8764 14.9854 15.5244V16.1941C14.9854 16.8422 15.5107 17.3675 16.1587 17.3675Z" fill="black"/>
<path d="M10.5106 23.0159C10.5106 22.3678 9.98525 21.8425 9.3372 21.8425H8.66749C8.01944 21.8425 7.49414 22.3678 7.49414 23.0159C7.49414 23.6639 8.01944 24.1892 8.66749 24.1892H9.3372C9.98525 24.1892 10.5106 23.6639 10.5106 23.0159Z" fill="black"/>
<path d="M21.8076 23.0159C21.8076 23.6639 22.3329 24.1892 22.981 24.1892H23.6507C24.2987 24.1892 24.824 23.6639 24.824 23.0159C24.824 22.3678 24.2987 21.8425 23.6507 21.8425H22.981C22.3329 21.8425 21.8076 22.368 21.8076 23.0159Z" fill="black"/>
<path d="M11.6915 16.8899C11.2334 16.4319 10.4904 16.4319 10.0322 16.8899C9.57389 17.3482 9.57389 18.091 10.0322 18.5492L10.5052 19.0221C10.7342 19.2514 11.0346 19.3658 11.3348 19.3658C11.635 19.3658 11.9354 19.2512 12.1645 19.0221C12.6228 18.564 12.6228 17.8211 12.1645 17.3628L11.6915 16.8899Z" fill="black"/>
<path d="M20.6514 29.1461C21.1107 29.6029 21.8537 29.6011 22.3107 29.142C22.7679 28.6825 22.766 27.9397 22.3066 27.4827L21.8325 27.0109C21.6028 26.7822 21.3022 26.6685 21.002 26.6693C20.7018 26.67 20.4017 26.7854 20.1732 27.015C19.716 27.4743 19.7178 28.2171 20.1773 28.6743L20.6514 29.1461Z" fill="black"/>
<path d="M16.9884 22.1862C16.5302 21.7279 15.7872 21.7281 15.3291 22.1861C14.8708 22.6444 14.8708 23.3872 15.3291 23.8453L20.6254 29.142C20.8545 29.3711 21.1549 29.4856 21.4551 29.4856C21.7553 29.4856 22.0556 29.3709 22.2847 29.142C22.7431 28.6837 22.7431 27.9409 22.2847 27.4826L16.9884 22.1862Z" fill="black"/>
<path d="M20.983 19.3658C21.2833 19.3658 21.5835 19.2512 21.8126 19.0221L22.2856 18.5492C22.7439 18.091 22.7439 17.3482 22.2856 16.8899C21.8274 16.4319 21.0844 16.4319 20.6263 16.8899L20.1533 17.3628C19.695 17.8211 19.695 18.564 20.1533 19.0221C20.3824 19.2512 20.6826 19.3658 20.983 19.3658Z" fill="black"/>
<path d="M10.5052 27.0095L10.0322 27.4824C9.57389 27.9408 9.57389 28.6836 10.0322 29.1417C10.2613 29.371 10.5617 29.4854 10.8619 29.4854C11.1621 29.4854 11.4624 29.3708 11.6915 29.1417L12.1645 28.6688C12.6228 28.2106 12.6228 27.4678 12.1645 27.0095C11.7063 26.5515 10.9633 26.5515 10.5052 27.0095Z" fill="black"/>
<path d="M46.3052 17.3675C46.9532 17.3675 47.4785 16.8422 47.4785 16.1941V15.5244C47.4785 14.8764 46.9532 14.3511 46.3052 14.3511C45.6571 14.3511 45.1318 14.8764 45.1318 15.5244V16.1941C45.1318 16.8422 45.6571 17.3675 46.3052 17.3675Z" fill="black"/>
<path d="M46.3052 28.6641C45.6571 28.6641 45.1318 29.1894 45.1318 29.8374V30.5071C45.1318 31.1552 45.6571 31.6805 46.3052 31.6805C46.9532 31.6805 47.4785 31.1552 47.4785 30.5071V29.8374C47.4785 29.1895 46.9532 28.6641 46.3052 28.6641Z" fill="black"/>
<path d="M51.9531 23.0159C51.9531 23.6639 52.4784 24.1892 53.1265 24.1892H53.7962C54.4442 24.1892 54.9695 23.6639 54.9695 23.0159C54.9695 22.3678 54.4442 21.8425 53.7962 21.8425H53.1265C52.4784 21.8425 51.9531 22.368 51.9531 23.0159Z" fill="black"/>
<path d="M40.657 23.0159C40.657 22.3678 40.1317 21.8425 39.4837 21.8425H38.814C38.1659 21.8425 37.6406 22.3678 37.6406 23.0159C37.6406 23.6639 38.1659 24.1892 38.814 24.1892H39.4837C40.1317 24.1892 40.657 23.6639 40.657 23.0159Z" fill="black"/>
<path d="M51.9581 27.0095C51.4998 26.5515 50.7568 26.5515 50.2988 27.0095C49.8405 27.4678 49.8405 28.2106 50.2988 28.6688L50.7718 29.1417C51.0008 29.371 51.3012 29.4854 51.6014 29.4854C51.9016 29.4854 52.202 29.3708 52.4313 29.1417C52.8894 28.6836 52.8894 27.9408 52.4313 27.4824L51.9581 27.0095Z" fill="black"/>
<path d="M40.5782 18.9518C41.0337 19.4126 41.7767 19.4172 42.2375 18.962C42.6986 18.5065 42.7032 17.7637 42.2477 17.3028L41.7777 16.8269C41.55 16.5963 41.2503 16.48 40.9501 16.4781C40.6499 16.4763 40.3489 16.589 40.1182 16.8167C39.6572 17.272 39.6527 18.0148 40.108 18.476L40.5782 18.9518Z" fill="black"/>
<path d="M47.5026 15.4981C47.5029 14.8502 46.9781 14.3246 46.33 14.3241C45.6822 14.3236 45.1564 14.8486 45.156 15.4967L45.1523 22.9871C45.1522 23.311 45.2835 23.6044 45.4957 23.8168C45.7078 24.0292 46.0012 24.1607 46.3253 24.1609C46.9732 24.1613 47.4988 23.6363 47.4991 22.9881L47.5026 15.4981Z" fill="black"/>
<path d="M40.6522 27.0097L40.1795 27.4827C39.7213 27.941 39.7215 28.684 40.1796 29.142C40.4089 29.371 40.7091 29.4855 41.0093 29.4855C41.3097 29.4855 41.61 29.3709 41.8391 29.1418L42.3119 28.6688C42.77 28.2105 42.7699 27.4675 42.3117 27.0095C41.8532 26.5516 41.1102 26.5514 40.6522 27.0097Z" fill="black"/>
<path d="M51.1283 19.3658C51.4285 19.3658 51.7289 19.2512 51.9581 19.0221L52.4311 18.5492C52.8892 18.091 52.8892 17.3482 52.4311 16.8899C51.9727 16.4319 51.2297 16.4319 50.7718 16.8899L50.2988 17.3628C49.8405 17.8211 49.8405 18.564 50.2988 19.0221C50.5277 19.2512 50.8281 19.3658 51.1283 19.3658Z" fill="black"/>
<path d="M31.2319 12.1387C30.5839 12.1387 30.0586 12.664 30.0586 13.312V33.1243C30.0586 33.7724 30.5839 34.2977 31.2319 34.2977C31.88 34.2977 32.4053 33.7724 32.4053 33.1243V13.312C32.4053 12.6642 31.88 12.1387 31.2319 12.1387Z" fill="black"/>
</svg>
