<svg width="63" height="42" viewBox="0 0 63 42" fill="none" xmlns="http://www.w3.org/2000/svg">
<path d="M4.06808 7.69285H14.8055V6.49874H13.5238C12.8758 6.49874 12.3505 5.97344 12.3505 5.32539C12.3505 4.67734 12.8758 4.15204 13.5238 4.15204H18.4339C19.0819 4.15204 19.6072 4.67734 19.6072 5.32539C19.6072 5.97344 19.0819 6.49874 18.4339 6.49874H17.152V7.69285H45.3124V2.3467H44.0308C43.3827 2.3467 42.8574 1.8214 42.8574 1.17335C42.8574 0.5253 43.3827 0 44.0308 0H48.9408C49.5889 0 50.1142 0.5253 50.1142 1.17335C50.1142 1.8214 49.5889 2.3467 48.9408 2.3467H47.6591V7.69267H58.3971C60.64 7.69285 62.4648 9.5175 62.4648 11.7606V34.6765C62.4648 36.7347 60.9279 38.4395 58.9417 38.7067V40.8266C58.9417 41.4747 58.4164 42 57.7684 42C57.1203 42 56.595 41.4747 56.595 40.8266V38.7442H5.87017V40.8266C5.87017 41.4747 5.34487 42 4.69682 42C4.04877 42 3.52347 41.4747 3.52347 40.8266V38.7067C1.53726 38.4397 0.000350952 36.7347 0.000350952 34.6765V11.7606C0.000350952 9.5175 1.82518 7.69285 4.06808 7.69285ZM2.34705 34.6765C2.34705 35.6255 3.11911 36.3975 4.06808 36.3975H58.3971C59.3461 36.3975 60.1181 35.6255 60.1181 34.6765V11.7606C60.1181 10.8116 59.3461 10.0396 58.3971 10.0396H4.06808C3.11911 10.0396 2.34705 10.8116 2.34705 11.7606V34.6765Z" fill="white"/>
<path d="M46.3061 11.1919C52.8258 11.1919 58.1299 16.496 58.1299 23.0157C58.1299 29.5353 52.8258 34.8394 46.3061 34.8394C39.7864 34.8394 34.4824 29.5353 34.4824 23.0157C34.4824 16.496 39.7864 11.1919 46.3061 11.1919ZM46.3061 32.4927C51.5319 32.4927 55.7832 28.2412 55.7832 23.0157C55.7832 17.7901 51.5319 13.5386 46.3061 13.5386C41.0804 13.5386 36.8291 17.7901 36.8291 23.0157C36.8291 28.2412 41.0806 32.4927 46.3061 32.4927Z" fill="white"/>
<path d="M16.1596 11.1919C22.6793 11.1919 27.9834 16.496 27.9834 23.0157C27.9834 29.5353 22.6793 34.8394 16.1596 34.8394C9.63996 34.8394 4.33587 29.5353 4.33587 23.0157C4.33587 16.496 9.63996 11.1919 16.1596 11.1919ZM16.1596 32.4927C21.3852 32.4927 25.6367 28.2412 25.6367 23.0157C25.6367 17.7901 21.3852 13.5386 16.1596 13.5386C10.9341 13.5386 6.68257 17.7901 6.68257 23.0157C6.68257 28.2412 10.9341 32.4927 16.1596 32.4927Z" fill="white"/>
<path d="M46.3061 28.6641C46.9542 28.6641 47.4795 29.1894 47.4795 29.8374V30.5071C47.4795 31.1552 46.9542 31.6805 46.3061 31.6805C45.6581 31.6805 45.1328 31.1552 45.1328 30.5071V29.8374C45.1328 29.1895 45.6581 28.6641 46.3061 28.6641Z" fill="white"/>
<path d="M46.3061 17.3675C45.6581 17.3675 45.1328 16.8422 45.1328 16.1941V15.5244C45.1328 14.8764 45.6581 14.3511 46.3061 14.3511C46.9542 14.3511 47.4795 14.8764 47.4795 15.5244V16.1941C47.4795 16.8422 46.9542 17.3675 46.3061 17.3675Z" fill="white"/>
<path d="M51.9543 23.0159C51.9543 22.3678 52.4796 21.8425 53.1276 21.8425H53.7974C54.4454 21.8425 54.9707 22.3678 54.9707 23.0159C54.9707 23.6639 54.4454 24.1892 53.7974 24.1892H53.1276C52.4796 24.1892 51.9543 23.6639 51.9543 23.0159Z" fill="white"/>
<path d="M40.6572 23.0159C40.6572 23.6639 40.1319 24.1892 39.4839 24.1892H38.8142C38.1661 24.1892 37.6408 23.6639 37.6408 23.0159C37.6408 22.3678 38.1661 21.8425 38.8142 21.8425H39.4839C40.1319 21.8425 40.6572 22.368 40.6572 23.0159Z" fill="white"/>
<path d="M50.7733 16.8899C51.2315 16.4319 51.9745 16.4319 52.4326 16.8899C52.8909 17.3482 52.8909 18.091 52.4326 18.5492L51.9597 19.0221C51.7306 19.2514 51.4302 19.3658 51.13 19.3658C50.8298 19.3658 50.5294 19.2512 50.3004 19.0221C49.842 18.564 49.842 17.8211 50.3004 17.3628L50.7733 16.8899Z" fill="white"/>
<path d="M41.8135 29.1461C41.3542 29.6029 40.6112 29.6011 40.1542 29.142C39.697 28.6825 39.6988 27.9397 40.1583 27.4827L40.6324 27.0109C40.862 26.7822 41.1627 26.6685 41.4629 26.6693C41.7631 26.67 42.0632 26.7854 42.2917 27.015C42.7489 27.4743 42.747 28.2171 42.2876 28.6743L41.8135 29.1461Z" fill="white"/>
<path d="M45.4764 22.1862C45.9346 21.7279 46.6776 21.7281 47.1357 22.1861C47.5941 22.6444 47.5941 23.3872 47.1357 23.8453L41.8394 29.142C41.6103 29.3711 41.31 29.4856 41.0098 29.4856C40.7096 29.4856 40.4092 29.3709 40.1801 29.142C39.7218 28.6837 39.7218 27.9409 40.1801 27.4826L45.4764 22.1862Z" fill="white"/>
<path d="M41.4819 19.3658C41.1815 19.3658 40.8813 19.2512 40.6522 19.0221L40.1793 18.5492C39.7209 18.091 39.7209 17.3482 40.1793 16.8899C40.6374 16.4319 41.3804 16.4319 41.8386 16.8899L42.3115 17.3628C42.7699 17.8211 42.7699 18.564 42.3115 19.0221C42.0825 19.2512 41.7823 19.3658 41.4819 19.3658Z" fill="white"/>
<path d="M51.9597 27.0095L52.4326 27.4824C52.8909 27.9408 52.8909 28.6836 52.4326 29.1417C52.2035 29.371 51.9032 29.4854 51.603 29.4854C51.3028 29.4854 51.0024 29.3708 50.7733 29.1417L50.3004 28.6688C49.842 28.2106 49.842 27.4678 50.3004 27.0095C50.7585 26.5515 51.5015 26.5515 51.9597 27.0095Z" fill="white"/>
<path d="M16.1597 17.3675C15.5116 17.3675 14.9863 16.8422 14.9863 16.1941V15.5244C14.9863 14.8764 15.5116 14.3511 16.1597 14.3511C16.8077 14.3511 17.333 14.8764 17.333 15.5244V16.1941C17.333 16.8422 16.8077 17.3675 16.1597 17.3675Z" fill="white"/>
<path d="M16.1597 28.6641C16.8077 28.6641 17.333 29.1894 17.333 29.8374V30.5071C17.333 31.1552 16.8077 31.6805 16.1597 31.6805C15.5116 31.6805 14.9863 31.1552 14.9863 30.5071V29.8374C14.9863 29.1895 15.5116 28.6641 16.1597 28.6641Z" fill="white"/>
<path d="M10.5117 23.0159C10.5117 23.6639 9.98642 24.1892 9.33837 24.1892H8.66866C8.02061 24.1892 7.49531 23.6639 7.49531 23.0159C7.49531 22.3678 8.02061 21.8425 8.66866 21.8425H9.33837C9.98642 21.8425 10.5117 22.368 10.5117 23.0159Z" fill="white"/>
<path d="M21.8078 23.0159C21.8078 22.3678 22.3331 21.8425 22.9812 21.8425H23.6509C24.2989 21.8425 24.8242 22.3678 24.8242 23.0159C24.8242 23.6639 24.2989 24.1892 23.6509 24.1892H22.9812C22.3331 24.1892 21.8078 23.6639 21.8078 23.0159Z" fill="white"/>
<path d="M10.5067 27.0095C10.965 26.5515 11.7081 26.5515 12.166 27.0095C12.6243 27.4678 12.6243 28.2106 12.166 28.6688L11.6931 29.1417C11.464 29.371 11.1636 29.4854 10.8634 29.4854C10.5632 29.4854 10.2628 29.3708 10.0336 29.1417C9.57544 28.6836 9.57544 27.9408 10.0336 27.4824L10.5067 27.0095Z" fill="white"/>
<path d="M21.8866 18.9518C21.4311 19.4126 20.6881 19.4172 20.2274 18.962C19.7662 18.5065 19.7617 17.7637 20.2172 17.3028L20.6872 16.8269C20.9149 16.5963 21.2145 16.48 21.5147 16.4781C21.8149 16.4763 22.116 16.589 22.3466 16.8167C22.8076 17.272 22.8122 18.0148 22.3569 18.476L21.8866 18.9518Z" fill="white"/>
<path d="M8.42847 24.1538C7.78058 24.16 7.25026 23.6401 7.24373 22.992C7.23733 22.3442 7.75747 21.8137 8.40548 21.8073L15.8955 21.7347C16.2195 21.7316 16.5141 21.8602 16.7284 22.0704C16.9427 22.2806 17.0769 22.5728 17.0801 22.8969C17.0864 23.5447 16.5663 24.0751 15.9181 24.0813L8.42847 24.1538Z" fill="white"/>
<path d="M21.8126 27.0097L22.2854 27.4827C22.7435 27.941 22.7434 28.684 22.2852 29.142C22.0559 29.371 21.7558 29.4855 21.4556 29.4855C21.1552 29.4855 20.8548 29.3709 20.6257 29.1418L20.153 28.6688C19.6948 28.2105 19.695 27.4675 20.1531 27.0095C20.6116 26.5516 21.3546 26.5514 21.8126 27.0097Z" fill="white"/>
<path d="M11.3366 19.3658C11.0364 19.3658 10.736 19.2512 10.5067 19.0221L10.0338 18.5492C9.57562 18.091 9.57562 17.3482 10.0338 16.8899C10.4921 16.4319 11.2351 16.4319 11.6931 16.8899L12.166 17.3628C12.6243 17.8211 12.6243 18.564 12.166 19.0221C11.9371 19.2512 11.6367 19.3658 11.3366 19.3658Z" fill="white"/>
<path d="M31.2329 12.1387C31.8809 12.1387 32.4062 12.664 32.4062 13.312V33.1243C32.4062 33.7724 31.8809 34.2977 31.2329 34.2977C30.5848 34.2977 30.0595 33.7724 30.0595 33.1243V13.312C30.0595 12.6642 30.5848 12.1387 31.2329 12.1387Z" fill="white"/>
</svg>
