<svg width="60" height="61" viewBox="0 0 60 61" fill="none" xmlns="http://www.w3.org/2000/svg">
<circle cx="30" cy="30.8333" r="30" fill="#FAE5D1"/>
<path d="M13.7401 9.99537C12.7654 11.033 12.6435 11.448 12.6435 14.2703V17.3831L15.6897 20.4545L18.7359 23.5258V30.8305V38.0938L14.8774 42.0367L11.0189 45.9796V48.7189C11.0189 53.1183 9.67856 52.8278 29.5803 52.8278C49.3602 52.8278 47.9793 53.1598 47.9793 48.6359V45.9796L44.3238 42.2442L40.6684 38.5088V31.0381V23.5258L43.5115 20.662L46.3546 17.7982V14.2288C46.3546 11.033 46.2734 10.5349 45.4205 9.74635C44.6488 8.99927 43.9989 8.83325 41.6432 8.83325C38.597 8.83325 37.8253 9.20679 37.8253 10.784C37.8253 11.614 37.6222 11.7386 36.4038 11.7386C35.1853 11.7386 34.9822 11.614 34.9822 10.784C34.9822 9.08228 34.2917 8.83325 29.7022 8.83325C25.1126 8.83325 24.4221 9.08228 24.4221 10.784C24.4221 11.614 24.219 11.7386 23.0005 11.7386C21.9039 11.7386 21.579 11.5725 21.579 10.9915C21.579 9.49732 20.2793 8.83325 17.4768 8.83325C15.1211 8.83325 14.7149 8.95776 13.7401 9.99537ZM37.8253 24.3974V25.85L29.6209 25.767L21.3759 25.6425L21.2541 24.2729L21.1322 22.9447H29.4585H37.8253V24.3974ZM37.8253 37.8863V39.1314H29.4991H21.1728V37.8863V36.6411H29.4991H37.8253V37.8863Z" fill="#8B481D"/>
</svg>
