<svg
  width="37"
  height="36"
  viewBox="0 0 37 36"
  fill="currentColor"
  xmlns="http://www.w3.org/2000/svg"
>
<path
    d="M33.1911 9.8205C33.1771 9.17704 33.1255 8.53494 33.0366 7.8975C32.929 7.3306 32.7459 6.78069 32.4921 6.2625C31.9371 5.16627 31.047 4.27561 29.9511 3.72C29.4361 3.46759 28.8898 3.28498 28.3266 3.177C27.6842 3.08645 27.0371 3.03386 26.3886 3.0195C26.1141 3.009 25.7586 3.0045 25.5936 3.0045L10.8216 3C10.6566 3 10.3011 3.0045 10.0266 3.015C9.38309 3.02895 8.74099 3.08054 8.10355 3.1695C7.53665 3.27705 6.98675 3.46018 6.46855 3.714C5.37232 4.26896 4.48166 5.15909 3.92605 6.255C3.67364 6.76995 3.49103 7.31627 3.38305 7.8795C3.292 8.52181 3.23891 9.16894 3.22405 9.8175C3.21505 10.092 3.20905 10.4475 3.20905 10.6125L3.20605 25.3845C3.20605 25.5495 3.21055 25.905 3.22105 26.1795C3.23501 26.823 3.28659 27.4651 3.37555 28.1025C3.4831 28.6694 3.66624 29.2193 3.92005 29.7375C4.47501 30.8337 5.36515 31.7244 6.46105 32.28C6.97601 32.5324 7.52232 32.715 8.08555 32.823C8.7279 32.9135 9.37502 32.9661 10.0236 32.9805C10.2981 32.991 10.6536 32.9955 10.8186 32.9955L25.5906 32.9985C25.7556 32.9985 26.1111 32.994 26.3856 32.9835C27.029 32.9695 27.6711 32.918 28.3086 32.829C28.8755 32.7214 29.4254 32.5383 29.9436 32.2845C31.0403 31.7298 31.9316 30.8396 32.4876 29.7435C32.74 29.2285 32.9226 28.6822 33.0306 28.119C33.1216 27.4767 33.1747 26.8296 33.1896 26.181C33.1986 25.9065 33.2046 25.551 33.2046 25.386L33.2061 10.6155C33.2061 10.4505 33.2016 10.095 33.1911 9.8205ZM18.5316 28.4355H18.5271C16.7413 28.4368 14.984 27.9891 13.4166 27.1335L7.74655 28.62L9.26455 23.0805C8.08923 21.041 7.61961 18.6707 7.9285 16.3371C8.23739 14.0035 9.30754 11.837 10.973 10.1735C12.6385 8.51 14.8063 7.44243 17.1402 7.13632C19.4742 6.8302 21.8439 7.30264 23.882 8.48039C25.9202 9.65814 27.5128 11.4754 28.413 13.6504C29.3133 15.8254 29.4708 18.2366 28.8611 20.5103C28.2515 22.7839 26.9088 24.7929 25.0412 26.2258C23.1736 27.6587 20.8855 28.4354 18.5316 28.4355Z"
    fill="#DFD1C4"
  />
<path
    d="M18.5362 8.85111C16.9478 8.85064 15.3883 9.27572 14.0199 10.0821C12.6514 10.8886 11.524 12.0469 10.7549 13.4366C9.98576 14.8263 9.60299 16.3967 9.64639 17.9845C9.68979 19.5723 10.1578 21.1195 11.0017 22.4651L11.2132 22.8011L10.3147 26.0801L13.6792 25.1981L14.0032 25.3901C15.3723 26.2025 16.9352 26.6305 18.5272 26.6291H18.5317C20.8894 26.6295 23.1507 25.6933 24.8181 24.0264C26.4855 22.3596 27.4225 20.0986 27.4229 17.7409C27.4233 15.3832 26.4871 13.1219 24.8202 11.4544C23.1534 9.78698 20.8924 8.85001 18.5347 8.84961L18.5362 8.85111ZM23.7622 21.5561C23.5658 21.8811 23.3042 22.1617 22.9939 22.3804C22.6835 22.5991 22.3312 22.751 21.9592 22.8266C21.3976 22.9231 20.8213 22.8871 20.2762 22.7216C19.7589 22.5612 19.2506 22.373 18.7537 22.1576C16.9083 21.2315 15.3353 19.8415 14.1892 18.1241C13.5637 17.3292 13.1841 16.3688 13.0972 15.3611C13.0902 14.9452 13.1699 14.5324 13.331 14.149C13.4921 13.7655 13.7313 13.4197 14.0332 13.1336C14.1227 13.0321 14.2322 12.95 14.3547 12.8925C14.4773 12.835 14.6103 12.8032 14.7457 12.7991C14.9227 12.7991 15.1012 12.7991 15.2572 12.8081C15.4222 12.8156 15.6412 12.7451 15.8572 13.2671C16.0822 13.8011 16.6162 15.1166 16.6822 15.2501C16.7243 15.3202 16.7484 15.3996 16.7523 15.4813C16.7562 15.5629 16.7399 15.6443 16.7047 15.7181C16.6377 15.8787 16.5477 16.0288 16.4377 16.1636C16.3027 16.3196 16.1572 16.5116 16.0372 16.6316C15.9022 16.7651 15.7642 16.9091 15.9187 17.1761C16.3206 17.8628 16.8214 18.4865 17.4052 19.0271C18.0398 19.5898 18.767 20.0384 19.5547 20.3531C19.8217 20.4881 19.9777 20.4641 20.1337 20.2856C20.2897 20.1071 20.8012 19.5056 20.9797 19.2386C21.1582 18.9716 21.3352 19.0166 21.5797 19.1051C21.8242 19.1936 23.1397 19.8401 23.4067 19.9751C23.6737 20.1101 23.8522 20.1746 23.9182 20.2856C23.9903 20.7153 23.9361 21.1566 23.7622 21.5561Z"
    fill="#DFD1C4"
  />
</svg>
