<svg width="188" height="201" viewBox="0 0 188 201" fill="none" xmlns="http://www.w3.org/2000/svg">
<path d="M164.659 151.643C163.573 148.174 162.351 144.422 161.021 140.467C151.904 113.318 149.984 84.1833 155.445 56.0887C165.431 48.6811 171.337 37.0218 171.337 24.5364L171.315 0.5H162.513V9.64212H153.903V0.5H145.102V9.64212H136.493V0.5H127.691V9.64212H119.081V0.5H110.28V9.64212H101.67V0.5H92.868L92.8003 24.5371C92.8003 37.0218 98.7068 48.6811 108.693 56.0893C114.154 84.1887 112.232 113.323 103.109 140.471C101.761 144.498 100.542 148.248 99.4786 151.643C97.2545 153.274 95.155 155.07 93.1984 157.013C90.5003 154.376 87.518 152.001 84.2736 149.951C80.9581 137.016 78.9852 123.755 78.3962 110.458C78.3467 109.344 78.252 106.163 78.252 106.163C85.6994 99.5697 89.9276 90.232 89.9276 80.2076V75.8069H83.646C85.9757 71.2978 87.2208 66.2599 87.2208 61.1184C87.2208 43.474 72.8661 29.1193 55.2216 29.1193C37.5765 29.1193 23.2219 43.474 23.2219 61.1184C23.2219 66.2599 24.4669 71.2984 26.7967 75.8069H20.515V80.2076C20.515 90.28 24.775 99.6469 32.28 106.243C31.9564 120.93 29.9449 135.596 26.2977 149.869C10.4934 159.795 0.751465 177.311 0.751465 196.031V200.5H187.249V196.168C187.249 178.569 178.832 162.039 164.659 151.643ZM101.603 24.5371V18.4437H162.536V24.5371C162.536 34.275 157.893 43.3582 150.066 49.1043H114.074C106.246 43.3582 101.603 34.275 101.603 24.5371ZM117.973 57.9058H146.166C141.229 86.4067 143.455 115.805 152.679 143.272C153.456 145.583 154.193 147.817 154.889 149.969H109.25C109.937 147.841 110.674 145.604 111.455 143.27C120.682 115.809 122.91 86.4114 117.973 57.9058ZM41.0193 108.606H69.5228C69.9643 121.95 71.7361 135.273 74.8078 148.307H35.7424C38.8101 135.274 40.5806 121.956 41.0193 108.606ZM32.0248 61.1177C32.0248 48.3264 42.4316 37.9202 55.223 37.9202C68.0144 37.9202 78.4205 48.3264 78.4205 61.1177C78.4205 66.4772 76.5546 71.6796 73.1667 75.8062H37.2786C33.8907 71.6796 32.0248 66.4772 32.0248 61.1177ZM29.6883 84.6084H80.7563C79.7536 90.496 76.7469 95.8386 72.1491 99.804H38.2969C33.6978 95.8379 30.6903 90.4987 29.6883 84.6084ZM31.3281 157.109H79.1132C91.3148 164.619 99.2938 177.499 100.677 191.63H9.76765C11.1495 177.493 19.1244 164.621 31.3281 157.109ZM109.518 191.767C108.705 181.525 104.99 171.796 98.9966 163.67C100.747 161.888 102.636 160.248 104.649 158.77H159.463C170.178 166.638 176.986 178.661 178.237 191.766L109.518 191.767Z" fill="white"/>
</svg>
